<svg width="431" height="412" viewBox="0 0 431 412" fill="none" xmlns="http://www.w3.org/2000/svg">
<path d="M331.163 144.072C330.99 143.464 330.723 142.312 330.655 142.324C325.17 143.259 323.524 138.991 321.28 135.517C321.138 135.297 320.73 135.248 320.229 135.021C311.509 144.744 302.797 154.56 293.97 164.271C285.866 173.185 277.547 181.906 269.49 190.862C262.48 198.654 255.856 206.795 248.784 214.528C240.305 223.801 231.44 232.719 222.913 241.949C214.267 251.309 205.839 260.872 197.296 270.328C185.652 283.216 174.01 296.106 162.328 308.96C155.117 316.894 147.834 324.761 140.193 332.525C138.657 331.591 137.511 330.79 136.481 329.688C160.171 303.557 183.746 277.728 207.292 251.93C201.737 245.633 201.21 239.638 205.993 232.846C209.76 227.496 213.65 222.113 218.249 217.507C221.854 213.897 226.628 211.452 230.883 208.49C231.449 209.188 232.015 209.887 232.581 210.585C228.389 214.476 223.787 218.018 220.11 222.347C215.485 227.791 211.262 233.664 207.575 239.779C205.793 242.736 205.993 246.534 210.735 248.226C221.85 235.862 232.877 223.506 244.005 211.241C256.865 197.065 269.802 182.957 282.729 168.842C292.935 157.699 303.211 146.619 313.391 135.452C319.556 128.691 325.562 121.786 331.704 115.004C338.886 107.073 346.126 99.195 353.363 91.3148C358.043 86.2198 362.863 81.2501 367.432 76.0593C371.152 71.8341 371 70.8074 366.739 66.9874C363.022 71.2081 359.37 75.4879 355.577 79.6389C335.102 102.047 314.62 124.448 294.086 146.802C280.045 162.087 265.69 177.093 251.992 192.678C248.805 196.305 245.635 199.274 241.252 200.728C234.427 202.993 227.357 204.544 220.598 206.974C216.179 208.563 211.424 209.163 207.837 213.315C199.447 223.027 190.338 232.113 181.638 241.562C170.205 253.981 158.946 266.561 147.496 278.965C139.225 287.926 130.828 296.773 122.359 305.547C119.104 308.919 115.494 311.949 112.159 314.824C113.797 312.111 113.605 310.52 110.671 309.164C109.407 308.579 108.866 306.431 107.996 304.993C109.25 306.057 110.503 307.121 112.273 308.624C116.992 303.498 121.656 298.345 126.417 293.282C133.443 285.811 140.635 278.494 147.581 270.949C157.304 260.39 166.793 249.615 176.522 239.061C183.011 232.021 189.772 225.232 196.353 218.274C198.96 215.517 201.346 212.55 203.942 209.781C207.341 206.155 210.829 203.502 216.357 202.552C224.851 201.091 233.156 198.006 241.214 194.79C244.359 193.536 246.803 190.232 249.248 187.569C263.211 172.362 277.071 157.061 290.982 141.806C294.146 138.337 297.373 134.925 300.392 131.68C294.979 123.534 286.892 118.286 285.484 108.487C287.044 106.786 288.297 105.385 289.639 104.389C290.265 106.833 290.291 109.235 291.434 110.845C295.403 116.439 299.759 121.759 304.317 127.634C305.888 125.656 306.942 124.328 308.19 122.9C308.626 122.635 308.829 122.431 309.009 122.094C309.026 122 309.213 121.959 309.363 121.754C309.637 121.054 309.76 120.559 310.139 119.759C310.721 119.039 311.049 118.623 311.66 118.37C312.745 118.015 313.546 117.497 314.494 116.864C314.822 116.569 314.952 116.359 315.058 115.773C314.725 114.615 314.365 113.801 313.862 112.818C313.348 112.421 312.977 112.192 312.397 111.687C311.469 110.523 310.749 109.637 309.893 108.588C309.551 108.228 309.312 108.083 309.023 108.005C309.006 108.019 309.003 107.974 308.884 107.798C308.589 107.399 308.395 107.192 308.053 106.681C306.272 104.429 304.623 102.496 302.909 100.451C302.736 100.198 302.6 100.095 302.312 99.7682C302.13 99.3264 302.072 99.144 302.052 98.631C302.448 97.5077 302.805 96.7148 303.461 95.9809C304.51 96.688 305.259 97.3362 306.155 98.173C306.517 98.6014 306.758 98.81 307.01 98.9935C306.995 98.9996 307.014 98.9715 307.102 99.1631C307.338 99.5979 307.52 99.8104 307.906 100.295C311.482 104.373 314.891 108.146 318.373 112.001C321.686 108.673 325.084 105.665 327.889 102.18C328.655 101.229 328.112 98.5918 327.35 97.1659C325.451 93.6107 323.081 90.3071 320.9 86.9025C321.544 86.4347 322.187 85.9668 322.83 85.499C325.925 89.1403 329.02 92.7816 332.283 96.6203C334.487 94.2972 335.769 92.4621 337.487 91.2355C341.081 88.6679 340.096 86.0612 337.926 83.377C333.529 77.9377 329.055 72.5603 324.481 66.9979C321.764 71.3092 319.682 75.7362 316.568 79.2498C313.239 83.0066 308.938 85.902 305.111 88.8543C304.467 87.3654 303.774 86.1957 303.08 85.0261C313.046 79.4919 316.87 68.9679 322.939 60.3158C327.622 53.6391 335.945 48.7757 342.706 50.1602C344.839 50.5972 347.144 51.7743 348.667 53.3106C352.358 57.0364 355.635 61.1725 359.126 65.1976C360.388 64.6962 361.327 64.4672 362.112 63.9863C365.758 61.7531 369.336 60.5275 372.736 64.3634C375.631 67.6308 375.715 74.0205 372.567 77.5687C364.219 86.977 355.719 96.2503 347.272 105.57C345.537 107.486 343.282 109.133 342.196 111.358C341.55 112.68 342.161 115.333 343.18 116.61C345.722 119.795 349.508 122.246 347.413 127.524C341.87 127.953 335.46 127.049 332.946 134.539C333.003 134.885 333.041 134.936 332.683 135.061C332.219 137.128 332.112 139.069 331.909 141.532C331.596 142.727 331.38 143.4 331.163 144.072ZM353.734 72.8955C353.836 72.2695 354.253 71.4224 353.993 71.0511C351.019 66.8155 348.138 62.4869 344.804 58.5448C343.299 56.7651 340.838 55.7937 337.684 53.7117C340.433 60.8783 347.281 63.743 347.773 70.236C347.147 70.7046 346.521 71.1731 345.895 71.6417C342.044 66.8986 338.193 62.1556 333.915 56.8863C331.589 59.0641 329.126 61.3691 326.766 63.578C332.703 70.7786 338.27 77.5299 344.04 84.5289C347.351 80.5101 350.274 76.9624 353.734 72.8955Z" fill="white"/>
<path d="M302.732 84.9723C303.774 86.1957 304.467 87.3654 305.031 89.0756C304.708 89.9013 304.439 90.0404 303.892 90.0747C303.424 90.2119 303.198 90.3661 302.668 90.6864C302.091 90.8557 301.859 90.9175 301.479 91.0663C301.15 91.3009 301.016 91.4838 300.946 91.7932C300.962 91.8841 300.79 91.9502 300.543 92.123C299.488 92.886 298.68 93.4762 297.576 94.0445C296.884 94.0272 296.489 94.0318 295.73 94.0755C290.868 95.3892 290.068 98.9347 289.877 103.184C289.709 103.633 289.63 103.809 289.551 103.984C288.297 105.385 287.044 106.786 285.53 108.108C285.224 106.289 285.178 104.551 285.331 102.144C285.669 100.958 285.806 100.44 285.944 99.9213C285.944 99.9213 285.987 99.9773 286.241 99.8151C286.985 98.7373 287.475 97.8218 287.965 96.9063C287.85 96.0026 287.734 95.0989 287.142 93.8765C286.447 93.3563 286.213 93.1745 285.963 93.0126C285.682 92.8616 285.443 92.662 285.039 91.869C283.511 90.5683 282.187 89.8122 280.863 89.0562C280.863 89.0562 280.433 89.0077 280.132 88.7441C279.234 88.281 278.637 88.0815 278.04 87.882C277.347 88.0506 276.654 88.2191 275.571 88.7956C275.13 89.8096 275.08 90.4156 275.029 91.0217C274.98 91.4666 274.931 91.9115 274.518 92.8383C274.13 94.5569 274.106 95.7935 274.082 97.0301C273.943 97.4689 273.804 97.9076 273.358 98.7751C273.001 99.7906 272.952 100.377 272.902 100.964C272.902 102.044 272.903 103.125 272.798 104.832C272.994 106.313 273.295 107.167 273.595 108.02C273.585 109.732 273.576 111.444 273.265 113.731C272.971 115.208 272.978 116.109 272.984 117.01C272.93 117.476 272.876 117.942 272.596 118.889C272.22 119.58 272.104 119.807 272.024 120.052C271.399 121.205 270.774 122.358 270.149 123.511C269.341 122.61 268.284 121.828 267.781 120.781C266.945 119.039 266.464 117.127 265.916 115.527C258.437 121.294 252.831 129.636 243.016 131.547C242.457 131.005 241.897 130.463 241.338 129.921C246.122 122.465 250.905 115.008 255.566 107.742C250.848 106.495 246.373 105.312 240.822 103.844C246.38 99.0376 251.917 97.0573 257.903 96.0877C259.368 95.8505 260.911 96.0694 262.365 95.797C268.646 94.6201 270.39 92.547 269.986 86.0847C269.908 84.8366 268.486 83.1567 267.259 82.583C261.089 79.6969 254.784 77.0975 248.513 74.4271C245.631 73.1998 242.051 72.1898 242.216 68.4346C242.39 64.4598 243.421 60.5391 247.289 57.9793C252.463 54.5551 257.6 53.947 263.583 57.4114C264.674 57.7187 265.229 57.7092 265.783 57.6997C265.455 57.2445 265.128 56.7892 264.8 56.334C263.716 54.5323 263.006 52.2254 261.445 51.069C259.832 49.8749 257.095 48.8519 255.362 49.3936C246.369 52.2054 237.694 56.1311 228.604 58.5045C221.563 60.3432 214.073 60.4689 206.488 60.4838C215.55 49.5029 228.596 45.7954 241.081 40.8072C220.675 27.867 215.727 22.7584 216.927 14.5212C222.432 16.4666 227.892 17.9653 232.963 20.3076C238.125 22.6926 242.904 25.9079 248.236 28.9816C247.457 23.6975 246.738 18.8223 246.019 13.9471C246.521 13.7828 247.022 13.6186 247.524 13.4544C256.083 19.2176 261.347 27.7478 266.157 37.0881C268.423 32.038 270.501 27.4062 272.866 22.137C278.017 29.7763 275.545 49.844 270.363 51.1832C272.724 56.4082 274.77 61.839 277.628 66.8019C278.707 68.675 281.776 69.3158 283.746 70.7777C290.007 75.4257 296.177 80.1957 302.732 84.9723ZM270.466 49.8082C270.088 49.7551 269.709 49.7021 269.331 49.6491C269.301 49.9181 269.272 50.1871 269.243 50.4561C269.745 50.5053 270.248 50.5546 270.466 49.8082Z" fill="white"/>
<path d="M191.972 347.267C192.761 347.535 193.551 347.803 194.821 348.426C197.456 351.064 199.804 352.643 203.057 350.892C203.491 350.928 203.926 350.964 204.797 351.128C205.233 351.256 205.62 351.306 205.62 351.306L205.996 351.197C206.541 351.325 207.086 351.452 207.949 352.112C208.961 353.574 209.488 355.077 210.379 355.339C215.308 356.785 218.461 362.406 224.517 361.257C225.48 361.075 226.792 361.772 227.698 362.41C235.507 367.902 243.304 373.414 251.014 379.044C255.627 382.413 255.38 383.767 250.554 387.01C248.781 388.201 247.502 390.13 245.659 391.901C244.196 395.04 242.459 397.926 242.09 400.977C241.545 405.486 244.352 407.948 248.158 407.14C248.94 408.173 249.467 409.03 249.993 409.887C241.111 413.155 237.405 409.558 232.081 403.186C226.589 396.612 221.286 389.88 215.901 383.217C215.19 383.347 214.478 383.478 213.767 383.609C212.114 388.571 209.801 393.429 208.998 398.525C208.239 403.341 205.373 405.643 201.687 407.342C194.807 410.513 181.333 405.717 178.319 398.762C177.393 396.626 177.859 393.343 178.806 391.046C181.03 385.651 183.929 380.535 186.985 374.983C187.61 374.498 187.789 374.319 187.952 374.123C187.952 374.123 187.973 373.975 188.27 373.839C187.888 372.839 187.206 371.238 186.532 371.241C183.68 371.253 180.83 371.742 177.979 372.057C177.538 372.031 177.097 372.006 176.068 371.81C173.694 370.811 171.775 369.434 170.997 372.733C170.552 372.782 170.107 372.831 169.13 372.544C167.084 371.804 165.57 371.4 164.022 370.577C162.294 363.555 162.645 357.436 167.862 352.282C168.593 351.56 168.674 350.182 169.056 349.107C169.056 349.107 169.039 349.042 169.246 348.901C169.673 348.562 169.863 348.338 170.024 348.089C170.024 348.089 170.037 348.022 170.485 348.016C175.803 347.994 180.673 348.038 185.54 347.927C187.04 347.893 188.531 347.436 190.025 347.173C190.196 347.159 190.367 347.144 190.895 347.274C191.252 347.418 191.629 347.431 191.629 347.431L191.972 347.267Z" fill="white"/>
<path d="M174.997 65.0005C177.758 68.5964 177.877 72.3131 176.997 76.8181C175.799 82.956 169.29 79.7024 167.029 83.7099C167.938 87.6141 169.997 89.4587 174.626 89.1175C181.268 88.6279 187.976 88.9079 194.651 89.0593C196.661 89.1049 198.656 89.8151 200.658 90.2209C200.708 90.6476 200.758 91.0743 200.808 91.501C196.174 93.1312 191.539 94.7614 186.528 96.5242C193.889 102.064 200.904 107.344 208.235 112.861C204.276 117.114 200.229 113.849 196.821 113.141C191.156 111.963 185.768 109.457 180.171 107.478C182.14 115.019 184.106 122.551 186.072 130.083C185.678 130.392 185.285 130.701 184.891 131.01C183.744 130.251 182.308 129.721 181.496 128.697C174.111 119.384 169.866 108.68 166.846 97.2327C165.867 93.5221 162.295 90.4371 159.637 87.2968C159.275 86.8691 157.222 87.5865 156.122 88.1216C152.308 89.9756 148.569 91.9831 144.05 93.9914C141.178 94.8903 138.677 95.2672 137.002 96.6466C127.828 104.2 118.586 111.712 109.949 119.856C106.537 123.074 101.883 126.124 101.971 131.932C101.971 131.932 101.991 131.989 101.633 132.083C99.3245 132.778 97.373 133.379 95.4216 133.98C95.3646 133.539 95.3076 133.099 95.5673 132.141C97.7188 128.915 96.3558 127.292 93.9764 126.015C93.4961 125.609 93.0158 125.204 92.2123 124.292C90.2673 122.868 88.6454 121.952 87.0102 121.02C86.9969 121.005 86.9661 120.978 86.9701 120.56C86.9744 118.753 86.9749 117.363 86.9753 115.973C86.9753 115.973 87 116 87.3522 115.971C91.8693 114.605 95.1157 112.436 95.3307 107.522C95.3307 107.522 95.3346 107.353 95.8103 107.39C103.933 105.576 108.233 99.9201 111.962 93.6213C112.038 93.4925 112.008 93.3003 112.027 93.1377C112.027 93.1377 112.016 93.0237 112.381 92.967C113.487 92.2632 114.229 91.616 114.972 90.9688C114.972 90.9688 115 91 115.357 90.9513C118.379 89.6258 121.248 88.6502 123.669 87.0121C129.392 83.1408 134.811 78.8212 140.537 74.9561C143.096 73.2289 146.295 72.4511 148.86 70.7299C154.356 67.041 159.628 63.0188 164.992 59.1331C165.869 59.2255 166.747 59.3179 167.91 60.0274C170.463 62.0965 172.73 63.5485 174.997 65.0005Z" fill="white"/>
<path d="M376.073 209.935C375.364 204.128 375.756 197.895 373.706 192.609C370.021 183.109 371.976 174.364 375.304 165.739C378.365 157.807 382.392 150.244 386.126 142.583C386.764 141.274 388.07 140.291 389.068 139.158C389.5 139.274 389.932 139.391 390.365 139.507C390.365 147.945 390.365 156.382 390.365 166C398.22 160.764 404.982 156.257 411.745 151.75C412.192 152.166 412.639 152.583 413.086 152.999C410.257 159.166 407.429 165.333 404.6 171.5C404.923 171.839 405.246 172.177 405.568 172.516C413.514 168.468 421.46 164.42 429.407 160.373C429.748 160.782 430.089 161.192 430.43 161.602C422.438 175.875 411.354 187.476 397.565 197.421C400.859 199.341 403.693 200.992 408.105 203.563C402.231 206.288 397.574 208.714 392.714 210.621C388.486 212.28 384.104 213.87 379.647 214.523C376.028 215.054 375.99 217.138 375.249 219.507C374.531 218.743 374.242 218.125 374.151 217.48C372.886 208.498 367.51 205.75 359.426 209.959C358.694 210.34 357.931 210.728 357.137 210.914C351.589 212.217 349.96 216.03 349.934 221.298C349.914 225.217 349.254 229.134 348.879 233.051C348.261 228.459 347.015 223.842 347.199 219.282C347.388 214.621 350.815 211.483 354.766 209.023C361.907 204.577 370.341 204.995 375.026 210.741C375.744 211.765 376.096 212.26 376.449 212.755C376.688 212.638 376.928 212.52 377.168 212.402C376.803 211.58 376.438 210.757 376.073 209.935Z" fill="white"/>
<path d="M344.029 313.062C343.951 313.394 343.769 313.655 342.916 314.014C337.233 317.709 330.132 319.614 331.045 328.051C331.045 328.051 330.999 328.002 330.674 328.07C327.051 331.095 323.388 333.738 320.525 337.067C312.877 345.958 305.637 355.407 294.454 359.993C290.785 361.497 288.171 366.793 283.086 363.661C285.432 359.221 288.996 355.118 283.147 350.674C283.041 349.919 283.007 349.484 282.931 348.729C282.283 347.6 281.675 346.79 280.801 345.861C280.014 345.184 279.492 344.626 278.861 343.739C277.511 342.477 275.967 341.75 275.136 340.536C274.575 339.715 275.016 338.208 275.195 337.113C275.913 337.143 276.444 337.067 277.232 336.772C280.642 334.377 283.796 332.2 286.95 330.024C286.95 330.024 286.985 329.939 287.277 329.9C288.033 329.65 288.496 329.439 288.96 329.228C289.132 329.177 289.304 329.127 289.908 328.927C290.558 328.63 290.762 328.465 290.954 328.284C291.125 328.226 291.295 328.167 291.875 328.311C295.588 329.84 296.115 327.502 296.666 325.194C296.666 325.194 296.791 324.999 297.272 324.985C299.157 323.964 300.561 322.957 301.964 321.95C301.964 321.95 301.997 322.001 302.333 321.946C306.308 318.454 310.448 315.402 313.451 311.479C316.834 307.058 319.194 301.854 322.236 297.075C323.312 295.773 324.15 294.387 325.237 292.731C328.991 291.639 332.498 290.816 336.191 290.102C336.917 290.138 337.456 290.065 338.347 290.05C344.63 291.592 347.745 296.489 350.014 301.245C350.809 302.911 347.224 306.64 345.694 309.457C345.064 310.618 344.58 311.858 344.029 313.062Z" fill="white"/>
<path d="M50.2584 210.053C50.2108 209.29 50.1632 208.527 50.3192 207.193C50.7334 203.381 50.8885 200.134 51.1678 196.899C51.6034 191.853 54.7371 189.244 59.4318 188.482C63.6846 187.793 66.6643 189.729 68.575 193.589C69.36 195.175 70.5761 196.548 71.5961 198.017C71.6784 198.453 71.7607 198.889 71.6029 199.863C71.8565 204.606 72.3503 208.81 72.844 213.013C72.8925 213.754 72.941 214.494 72.9103 215.788C73.0969 216.9 73.3627 217.458 73.6286 218.017C73.7507 219.396 73.8728 220.776 73.8557 222.877C74.3908 226.07 75.065 228.541 75.7393 231.012C75.782 231.452 75.8247 231.892 75.5871 232.809C73.9862 237.974 74.7848 242.011 78.9193 245.021C78.9193 245.021 78.9883 245.034 79.0176 245.199C79.1087 245.537 79.1942 245.696 79.3035 245.842C79.5029 246.626 79.7023 247.41 79.8287 248.896C82.196 255.722 84.6363 261.846 87.0767 267.971C87.6858 268.768 88.2949 269.564 88.8182 270.937C87.8287 274.011 86.9251 276.509 86.0215 279.006C85.8314 278.91 85.6414 278.813 84.902 278.381C81.4107 276.637 78.708 276.214 76.9864 279.833C76.9864 279.833 76.5633 279.996 76.1398 280.163C75.4619 280.531 75.2313 280.757 75.0247 281.007C75.0247 281.007 75.0156 281.018 74.6324 281.035C72.9255 281.83 71.5053 282.484 70.3006 283.416C68.4587 284.841 66.7656 286.458 65.0093 287.994C64.5033 286.828 63.9972 285.661 63.5921 283.787C62.6173 271.604 61.5741 260.126 60.3778 248.664C60.3123 248.037 58.9708 247.543 58.2233 246.987C56.5393 240.639 54.6359 234.339 53.2423 227.928C52.1718 223.004 51.7434 217.94 50.9415 212.245C50.6552 211.052 50.4568 210.553 50.2584 210.053Z" fill="white"/>
<path d="M5.70346 225.211C4.48064 222.319 3.46462 219.722 2.59234 217.077C1.79298 214.654 1.14877 212.179 0.957153 209.314C13.195 216.947 22.6637 227.399 31.8304 238.763C30.9534 228.478 30.1023 218.497 29.1692 207.555C34.0389 209.752 36.0077 213.85 37.3952 217.41C43.3623 232.72 48.9441 248.191 54.2017 263.76C56.1777 269.611 56.9649 275.875 58.1166 281.984C58.3226 283.077 57.9379 284.548 57.2699 285.416C56.9715 285.804 55.1188 285.423 54.2747 284.901C44.6894 278.97 35.0565 273.103 25.6956 266.832C23.3773 265.279 21.9921 262.333 19.5036 259.17C22.8347 258.673 25.2474 258.312 28.2193 257.868C18.666 248.14 11.886 237.104 5.70346 225.211Z" fill="white"/>
<path d="M348.947 233.418C349.254 229.134 349.914 225.217 349.934 221.298C349.96 216.03 351.589 212.217 357.137 210.914C357.931 210.728 358.694 210.34 359.426 209.959C367.51 205.75 372.886 208.498 374.151 217.48C374.242 218.125 374.531 218.743 374.921 219.716C375.004 220.795 374.894 221.532 374.487 222.779C374.139 224.196 374.087 225.105 374.036 226.013C373.999 227.089 373.962 228.164 373.813 229.753C373.648 230.514 373.682 230.752 373.805 230.978C373.844 231.751 373.883 232.524 373.587 233.913C372.854 237.361 372.455 240.191 372.056 243.022C371.946 243.476 371.837 243.931 371.338 244.92C368.863 252.206 366.655 258.924 364.777 265.733C364.331 267.351 364.988 269.274 365.138 271.057C365.054 271.496 364.97 271.936 364.53 272.896C363.781 274.92 363.388 276.423 362.996 277.925C362.971 278.111 362.946 278.296 362.63 278.847C362.258 279.821 362.178 280.43 362.098 281.039C361.937 281.494 361.775 281.95 361.18 282.893C360.138 285.577 359.53 287.774 358.922 289.97C358.602 291.102 358.282 292.235 357.448 293.724C355.349 294.387 353.765 294.693 352.125 294.629C352.038 293.511 352.007 292.763 352.222 291.877C354.097 286.928 349.968 287.192 347.371 285.87C347.295 285.701 347.36 285.337 347.646 285.11C348.796 283.44 349.66 281.996 349.989 281.445C345.607 281.656 341.958 281.983 338.314 281.933C336.802 281.913 335.301 281.087 333.795 280.628C334.455 279.217 335.032 277.761 335.79 276.405C338.471 271.614 344.111 268.538 344.036 262.149C344.074 261.954 344.111 261.76 344.576 261.201C350.365 255.007 350.197 248.094 348.899 240.96C348.987 240.217 349.076 239.475 349.424 238.266C349.569 237.198 349.455 236.598 349.34 235.997C349.232 235.26 349.124 234.522 348.947 233.418Z" fill="white"/>
<path d="M331.105 144.066C331.38 143.4 331.596 142.727 331.953 141.116C332.409 138.431 332.725 136.684 333.041 134.936C333.041 134.936 333.003 134.885 332.982 134.908C334.723 134.107 336.665 133.533 338.218 132.419C346.217 126.681 352.313 129.353 354.832 138.787C358.677 153.189 363.342 167.373 367.682 181.643C369.298 186.959 371.172 192.207 372.535 197.585C373.098 199.806 372.629 202.289 372.629 206.259C367.92 202.898 365.371 197.196 360.092 200.705C356.447 203.128 353.211 206.166 348.759 209.763C347.726 193.513 347.893 177.975 341.226 163.049C341.242 160.624 341.777 158.472 340.946 157.241C337.927 152.77 334.452 148.609 331.149 144.33C331.149 144.33 331.048 144.06 331.105 144.066Z" fill="white"/>
<path d="M164.596 59.063C159.628 63.0188 154.356 67.041 148.86 70.7299C146.295 72.4511 143.096 73.2289 140.537 74.9561C134.811 78.8212 129.392 83.1408 123.669 87.0121C121.248 88.6502 118.379 89.6258 115.342 90.9361C126.839 82.6145 138.708 74.2593 150.563 65.9139C150.373 65.3772 149.418 63.8376 149.335 62.2524C148.915 54.2145 148.014 46.1067 148.666 38.1367C149.225 31.3045 151.6 24.6118 153.296 17.889C153.659 16.4511 154.562 15.1493 155.216 13.7847C155.972 14.2455 156.728 14.7062 157.485 15.167C157.72 19.6632 157.955 24.1593 158.233 29.4609C167.571 19.6995 176.563 10.3004 185.555 0.901367C185.993 1.17075 186.432 1.44013 186.87 1.70951C186.66 15.3941 176.769 24.532 169.072 35.6753C179.446 32.5387 188.815 29.7063 198.184 26.8739C198.531 27.5434 198.878 28.2128 199.224 28.8822C192.459 33.1368 185.958 37.9181 178.85 41.4917C172.306 44.782 165.042 46.6137 158.253 49.4646C156.79 50.079 155.354 52.1857 155.051 53.8174C154.53 56.6338 154.907 59.6167 154.907 62.0756C158.223 60.9757 161.212 59.9843 164.596 59.063Z" fill="white"/>
<path d="M127.013 353.983C124.658 351.509 122.997 352.038 120.724 354.574C107.062 369.82 93.1921 384.88 79.3921 400.003C79.2799 400.126 79.185 400.266 79.0658 400.381C76.2824 403.075 73.7466 407.673 70.6617 408.077C63.3272 409.038 56.2549 407.07 50.4965 401.34C45.723 396.59 42.7281 391.546 44.0411 384.725C44.4021 382.849 45.1321 380.749 46.3849 379.389C56.0814 368.866 65.9721 358.523 75.7528 348.077C82.2764 341.11 88.7182 334.067 95.9212 326.999C99.0612 326.285 101.477 325.629 103.885 325.328C99.73 329.933 95.492 334.101 91.4524 338.453C78.6978 352.193 66.0151 366 53.3096 379.786C47.0734 386.553 46.5417 389.561 52.6235 395.991C58.396 402.093 63.79 407.258 73.2812 398.975C77.5984 395.207 81.3156 390.737 85.1948 386.486C97.4902 373.009 109.734 359.486 122.055 346.327C123.746 349.111 125.38 351.547 127.013 353.983Z" fill="white"/>
<path d="M103.892 324.973C101.477 325.629 99.0612 326.285 96.2584 326.941C91.4299 322.126 87.2803 316.993 82.4666 312.585C77.5479 308.081 73.4686 298.952 75.0182 293.603C78.2542 282.434 88.4012 279.834 96.5763 287.696C100.802 291.759 103.176 297.748 106.798 303.196C107.349 303.705 107.515 303.859 107.705 303.987C107.761 304.152 107.817 304.318 107.934 304.738C108.866 306.431 109.407 308.579 110.671 309.164C113.605 310.52 113.797 312.111 112.107 315.039C111.942 315.566 111.768 315.974 111.445 316.057C110.406 317.41 109.69 318.678 108.991 319.967C109.008 319.988 108.955 319.978 108.629 319.98C107.869 319.994 107.435 320.006 106.702 320.162C105.583 321.826 104.763 323.347 103.957 324.907C103.97 324.946 103.892 324.973 103.892 324.973Z" fill="white"/>
<path d="M92.0143 131.995C92.6697 133.085 93.3251 134.175 93.8611 135.889C93.1666 138.538 92.9253 140.739 91.9631 142.559C84.7067 156.287 78.3423 170.328 75.7118 185.792C75.6186 186.339 75.036 186.804 74.2121 187.973C72.8601 186.041 71.849 184.453 70.6943 182.977C68.703 180.433 66.6343 177.919 62.677 180.711C61.8974 180.841 61.4445 180.874 60.8016 180.696C58.1567 181.093 55.7018 181.701 51.8361 182.659C52.9469 180.161 53.5854 178.386 54.4878 176.758C57.5264 171.274 63.4029 167.238 62.9869 159.999C62.9869 159.999 62.9938 159.993 63.3313 159.891C65.1217 158.103 67.0245 156.631 67.9454 154.693C71.0653 148.126 73.3978 141.144 76.9716 134.855C78.2951 132.526 82.1087 131.377 85.0087 130.273C86.5614 129.683 88.5862 130.333 90.3979 130.423C90.3979 130.423 90.2143 130.559 90.437 130.732C91.1112 131.268 91.5628 131.631 92.0143 131.995Z" fill="white"/>
<path d="M127.104 354.221C125.38 351.547 123.746 349.111 122.218 346.04C124.256 343.284 126.189 341.163 128.381 338.913C129.084 338.179 129.527 337.573 129.986 336.982C130.003 336.996 129.964 336.979 130.148 336.813C130.568 336.417 130.777 336.163 131.036 335.669C131.291 335.18 131.54 335.012 132.18 334.848C133.314 333.782 134.127 332.814 135.056 331.575C135.57 330.865 135.968 330.427 136.366 329.988C137.511 330.79 138.657 331.591 139.902 332.698C141.348 333.754 142.623 334.698 144.053 335.22C151.52 337.945 159.042 340.522 166.495 343.284C167.167 343.533 167.952 344.799 167.853 345.471C167.729 346.315 166.902 347.287 166.113 347.765C161.041 350.833 157.036 358.047 158.02 362.934C158.258 364.114 159.156 365.16 159.647 366.87C157.861 367.913 156.142 368.822 154.503 368.693C151.641 368.469 148.829 367.606 145.996 367.011C145.996 367.011 145.998 367.001 145.901 366.689C144.666 362.973 142.117 362.423 139.004 363.013C139.004 363.013 138.991 363.011 138.884 362.682C135.642 360.571 132.507 358.791 129.372 357.01C129.302 356.825 129.231 356.64 128.936 356.002C128.511 355.332 128.285 355.146 128.034 354.99C127.754 354.813 127.474 354.635 127.104 354.221Z" fill="white"/>
<path d="M239 351.135C240.098 350.771 241.195 350.407 242.95 350.18C247.867 349.349 252.497 349.126 256.302 347.239C262.37 344.231 268.174 342.308 274.84 345.024C274.928 345.026 274.923 345.201 274.99 345.503C275.704 346.527 276.352 347.249 277.016 347.974C277.033 347.976 277.024 348.007 277.056 348.332C277.401 349.462 277.715 350.268 277.987 351.426C278.303 353.852 278.659 355.925 279.014 358.427C279.009 360.568 279.007 362.28 278.72 364.186C275.332 365.862 271.998 368.939 269.169 368.528C260.767 367.309 251.329 373.706 243.894 365.376C243.706 365.165 243.234 365.238 242.965 365.067C238.357 362.147 233.761 359.209 229.426 356.443C232.673 354.642 235.837 352.889 239 351.135Z" fill="white"/>
<path d="M238.572 351.069C235.837 352.889 232.673 354.642 229.426 356.443C233.761 359.209 238.357 362.147 242.965 365.067C243.234 365.238 243.706 365.165 243.894 365.376C251.329 373.706 260.767 367.309 269.169 368.528C271.998 368.939 275.332 365.862 279.118 364.188C280.861 363.996 281.922 363.995 282.983 363.994C288.171 366.793 290.785 361.497 294.454 359.993C305.637 355.407 312.877 345.958 320.525 337.067C323.388 333.738 327.051 331.095 330.7 328.091C319.035 343.982 306.567 359.688 286.944 366.569C279.047 369.338 270.255 369.541 261.879 370.967C257.611 371.694 253.364 372.543 248.923 373.371C252.276 377.494 255.008 380.854 258.023 384.798C258.831 386.262 259.355 387.141 259.88 388.021C259.88 388.021 259.991 388.444 260.09 388.872C260.328 389.567 260.508 389.803 260.728 390.009C260.76 391.075 260.793 392.141 260.54 393.7C259.491 394.1 258.727 394.008 257.839 393.58C255.632 387.487 255.265 387.299 249.664 389.668C248.381 390.21 247.216 391.03 245.997 391.722C247.502 390.13 248.781 388.201 250.554 387.01C255.38 383.767 255.627 382.413 251.014 379.044C243.304 373.414 235.507 367.902 227.698 362.41C226.792 361.772 225.48 361.075 224.517 361.257C218.461 362.406 215.308 356.785 210.379 355.339C209.488 355.077 208.961 353.574 208.133 352.332C208.166 352.032 208.385 351.978 208.489 352.064C215.549 357.862 222.804 354.426 230.056 352.587C232.714 351.913 235.445 351.523 238.572 351.069Z" fill="white"/>
<path d="M343.729 262.278C344.111 268.538 338.471 271.614 335.79 276.405C335.032 277.761 334.455 279.217 333.795 280.628C335.301 281.087 336.802 281.913 338.314 281.933C341.958 281.983 345.607 281.656 349.989 281.445C349.66 281.996 348.796 283.44 347.278 284.973C341.718 283.804 336.783 282.283 331.908 287.274C341.219 285.668 345.94 292.049 351.596 297.162C351.846 296.238 352.013 295.618 352.181 294.999C353.765 294.693 355.349 294.387 357.275 294.037C357.238 295.412 356.859 296.832 356.389 298.588C355.273 298.762 353.855 298.983 352.371 299.215C352.771 305.446 348.885 309.301 344.386 313.037C344.58 311.858 345.064 310.618 345.694 309.457C347.224 306.64 350.809 302.911 350.014 301.245C347.745 296.489 344.63 291.592 338.16 289.943C337.082 289.85 336.543 289.921 336.004 289.992C332.498 290.816 328.991 291.639 324.988 292.923C323.661 294.587 322.83 295.789 321.999 296.991C319.194 301.854 316.834 307.058 313.451 311.479C310.448 315.402 306.308 318.454 302.31 321.926C307.337 314.431 312.938 307.043 318.035 299.321C321.379 294.254 323.958 288.666 329.232 288.083C329.516 285.381 329.113 283.181 329.998 281.819C334.283 275.225 338.913 268.856 343.729 262.278Z" fill="white"/>
<path d="M63.0039 180.614C66.6343 177.919 68.703 180.433 70.6943 182.977C71.849 184.453 72.8601 186.041 74.2121 187.973C75.036 186.804 75.6186 186.339 75.7118 185.792C78.3423 170.328 84.7067 156.287 91.9631 142.559C92.9253 140.739 93.1665 138.538 93.912 136.236C94.456 135.508 94.8296 135.057 95.3124 134.293C97.373 133.379 99.3245 132.778 101.604 132.075C100.036 134.061 98.1401 136.147 95.5363 139.013C94.5154 141.37 93.1554 145.086 91.3519 148.572C84.7942 161.247 79.1188 174.196 77.5196 188.897C75.7065 189.958 73.5936 191.195 71.5109 192.413C71.5999 194.014 71.6899 195.631 71.688 197.633C70.5761 196.548 69.36 195.175 68.575 193.589C66.6643 189.729 63.6846 187.793 59.4318 188.482C54.7371 189.244 51.6034 191.853 51.1678 196.899C50.8885 200.134 50.7334 203.381 50.2905 206.812C48.5044 199.722 47.3202 192.532 54.3967 187.205C54.0139 186.984 53.9443 187.03 54.3084 187.346C59.5902 187.663 64.5077 187.663 69.603 187.663C70.0596 183.65 68.72 181.965 63.0039 180.614Z" fill="white"/>
<path d="M274.752 345.021C268.174 342.308 262.37 344.231 256.302 347.239C252.497 349.126 247.867 349.349 243.301 350.152C251.58 346.79 260.166 343.592 269.047 340.286C269.313 332.605 277.328 334.374 281.47 331.096C282.599 330.203 284.574 330.379 286.556 330.044C283.796 332.2 280.642 334.377 276.904 336.775C275.883 337 275.446 337.004 275.009 337.007C275.016 338.208 274.575 339.715 275.136 340.536C275.967 341.75 277.511 342.477 278.464 343.679C277.036 344.306 275.894 344.664 274.752 345.021Z" fill="white"/>
<path d="M102.276 131.79C101.883 126.124 106.537 123.074 109.949 119.856C118.586 111.712 127.828 104.2 137.002 96.6466C138.677 95.2672 141.178 94.8903 143.687 94.0402C139.585 97.3475 135.054 100.611 130.617 103.999C126.738 106.961 122.618 109.721 119.223 113.178C113.421 119.084 108.103 125.466 102.276 131.79Z" fill="white"/>
<path d="M90.1011 130.24C88.5862 130.333 86.5614 129.683 85.0087 130.273C82.1087 131.377 78.2951 132.526 76.9716 134.855C73.3978 141.144 71.0653 148.126 67.9454 154.693C67.0245 156.631 65.1217 158.103 63.3346 159.888C67.1432 150.868 71.0161 141.612 75.5342 132.683C78.0966 127.619 80.4997 124.553 90.1011 130.24Z" fill="white"/>
<path d="M146.207 367.291C148.829 367.606 151.641 368.469 154.503 368.693C156.142 368.822 157.861 367.913 159.763 367.237C160.698 364.122 160.952 361.011 162.245 358.419C163.86 355.186 166.331 352.38 168.744 349.248C168.674 350.182 168.593 351.56 167.862 352.282C162.645 357.436 162.294 363.555 164.011 370.829C164.025 371.668 164.016 371.836 164.006 372.004C163.143 370.908 162.28 369.813 161.198 368.44C160.459 373.029 158.499 374.327 154.337 371.138C152.1 369.423 149.083 368.727 146.207 367.291Z" fill="white"/>
<path d="M62.678 160.156C63.4029 167.238 57.5264 171.274 54.4878 176.758C53.5854 178.386 52.9469 180.161 51.8361 182.659C55.7018 181.701 58.1567 181.093 60.5733 180.963C58.3381 183.304 56.1412 185.167 53.9443 187.03C53.9443 187.03 54.0139 186.984 54.0489 186.96C49.5032 185.679 48.8518 181.614 52.2739 176.303C55.6878 171.005 59.0079 165.646 62.678 160.156Z" fill="white"/>
<path d="M257.963 393.916C258.727 394.008 259.491 394.1 260.486 394.097C261.104 401.629 257.676 406.8 250.316 409.766C249.467 409.03 248.94 408.173 248.374 406.868C254.246 404.333 256.715 399.594 257.963 393.916Z" fill="white"/>
<path d="M58.1624 247.401C58.9708 247.543 60.3123 248.037 60.3778 248.664C61.5741 260.126 62.6173 271.604 63.5811 283.455C61.68 271.826 59.8908 259.82 58.1624 247.401Z" fill="white"/>
<path d="M111.731 93.2836C112.008 93.3003 112.038 93.4925 111.962 93.6213C108.233 99.9201 103.933 105.576 95.8946 107.384C100.814 102.702 106.124 98.066 111.731 93.2836Z" fill="white"/>
<path d="M331.109 144.638C334.452 148.609 337.927 152.77 340.946 157.241C341.777 158.472 341.242 160.624 341.163 162.677C338.185 158.871 335.23 154.832 332.648 150.567C331.677 148.963 331.571 146.835 331.109 144.638Z" fill="white"/>
<path d="M365.46 270.84C364.988 269.274 364.331 267.351 364.777 265.733C366.655 258.924 368.863 252.206 371.186 245.236C369.835 251.956 368.235 258.893 366.669 265.837C366.313 267.419 366.074 269.027 365.46 270.84Z" fill="white"/>
<path d="M331.387 327.97C330.132 319.614 337.233 317.709 342.689 314.1C339.264 318.64 335.496 323.264 331.387 327.97Z" fill="white"/>
<path d="M87.0236 121.036C88.6455 121.952 90.2673 122.868 91.9571 124.107C88.537 124.428 85.049 124.428 80.3788 124.428C82.5942 121.418 84.4803 118.855 86.6709 116.132C86.9749 117.363 86.9744 118.753 86.9428 120.586C86.9115 121.029 87.0236 121.036 87.0236 121.036Z" fill="white"/>
<path d="M65.0308 288.363C66.7656 286.458 68.4587 284.841 70.3006 283.416C71.5053 282.484 72.9255 281.83 74.6261 281.038C73.439 284.469 71.875 287.913 70.1277 291.761C68.6265 290.865 66.8394 289.798 65.0308 288.363Z" fill="white"/>
<path d="M348.552 241.193C350.197 248.094 350.365 255.007 344.678 260.922C345.637 254.48 346.921 247.952 348.552 241.193Z" fill="white"/>
<path d="M189.658 347.002C188.531 347.436 187.04 347.893 185.54 347.927C180.673 348.038 175.803 347.994 170.518 348.026C176.189 342.728 182.799 345.714 189.658 347.002Z" fill="white"/>
<path d="M87.053 267.58C84.6363 261.846 82.196 255.722 79.8736 249.298C82.3374 255.063 84.6834 261.126 87.053 267.58Z" fill="white"/>
<path d="M78.9052 244.626C74.7848 242.011 73.9862 237.974 75.5292 233.137C76.7981 236.736 77.8446 240.484 78.9052 244.626Z" fill="white"/>
<path d="M86.1616 279.363C86.9251 276.509 87.8287 274.011 88.8489 271.262C89.5561 271.928 90.3003 272.783 90.7111 273.775C92.7147 278.618 91.6132 280.067 86.1616 279.363Z" fill="white"/>
<path d="M72.9137 212.559C72.3503 208.81 71.8565 204.606 71.5735 200.196C72.184 204.028 72.5837 208.066 72.9137 212.559Z" fill="white"/>
<path d="M178.213 372.405C180.83 371.742 183.68 371.253 186.532 371.241C187.206 371.238 187.888 372.839 188.343 373.849C184.896 373.582 181.672 373.167 178.213 372.405Z" fill="white"/>
<path d="M95.0908 107.734C95.1157 112.436 91.8693 114.605 87.3387 115.958C89.5989 113.299 92.2249 110.623 95.0908 107.734Z" fill="white"/>
<path d="M129.45 357.326C132.507 358.791 135.642 360.571 138.882 362.675C135.834 361.213 132.681 359.427 129.45 357.326Z" fill="white"/>
<path d="M202.853 350.596C199.804 352.643 197.456 351.064 195.14 348.493C197.536 348.903 200.093 349.602 202.853 350.596Z" fill="white"/>
<path d="M372.393 242.819C372.455 240.191 372.854 237.361 373.488 234.289C373.392 236.904 373.061 239.76 372.393 242.819Z" fill="white"/>
<path d="M174.856 64.6961C172.73 63.5485 170.463 62.0965 168.107 60.2995C170.251 61.4336 172.483 62.9127 174.856 64.6961Z" fill="white"/>
<path d="M75.8134 230.626C75.065 228.541 74.3908 226.07 73.8956 223.291C74.6789 225.402 75.2832 227.821 75.8134 230.626Z" fill="white"/>
<path d="M77.3871 279.808C78.708 276.214 81.4107 276.637 84.6098 278.252C82.5072 278.899 80.1475 279.341 77.3871 279.808Z" fill="white"/>
<path d="M139.182 363.307C142.117 362.423 144.666 362.973 145.896 366.692C143.779 365.872 141.569 364.736 139.182 363.307Z" fill="white"/>
<path d="M359.253 289.838C359.53 287.774 360.138 285.577 360.973 283.191C360.661 285.236 360.123 287.471 359.253 289.838Z" fill="white"/>
<path d="M296.366 325.375C296.115 327.502 295.588 329.84 292.143 328.278C293.357 327.212 294.712 326.384 296.366 325.375Z" fill="white"/>
<path d="M94.0195 126.4C96.3558 127.292 97.7188 128.915 95.6425 131.815C94.9549 130.265 94.5087 128.525 94.0195 126.4Z" fill="white"/>
<path d="M171.375 372.794C171.775 369.434 173.694 370.811 175.736 371.82C174.58 372.285 173.167 372.57 171.375 372.794Z" fill="white"/>
<path d="M164.215 372.326C164.016 371.836 164.025 371.668 164.045 371.247C165.57 371.4 167.084 371.804 168.799 372.478C167.474 372.714 165.949 372.681 164.215 372.326Z" fill="white"/>
<path d="M281.027 89.3442C282.187 89.8122 283.511 90.5683 284.914 91.6697C283.726 91.2208 282.458 90.4265 281.027 89.3442Z" fill="white"/>
<path d="M301.637 322.017C300.561 322.957 299.157 323.964 297.388 324.987C298.452 324.029 299.881 323.056 301.637 322.017Z" fill="white"/>
<path d="M274.415 96.8534C274.106 95.7935 274.13 94.5569 274.392 93.1493C274.668 94.2112 274.708 95.444 274.415 96.8534Z" fill="white"/>
<path d="M363.289 277.737C363.388 276.423 363.781 274.92 364.439 273.22C364.331 274.531 363.957 276.04 363.289 277.737Z" fill="white"/>
<path d="M273.257 116.811C272.978 116.109 272.971 115.208 273.153 114.145C273.404 114.859 273.467 115.736 273.257 116.811Z" fill="white"/>
<path d="M374.326 225.838C374.087 225.105 374.139 224.196 374.407 223.144C374.622 223.888 374.619 224.775 374.326 225.838Z" fill="white"/>
<path d="M273.684 107.701C273.295 107.167 272.994 106.313 272.823 105.237C273.227 105.804 273.5 106.593 273.684 107.701Z" fill="white"/>
<path d="M287.636 96.9916C287.475 97.8218 286.985 98.7373 286.207 99.8033C286.383 98.9949 286.845 98.0359 287.636 96.9916Z" fill="white"/>
<path d="M114.663 91.0122C114.229 91.616 113.487 92.2632 112.438 92.9618C112.871 92.3607 113.613 91.7081 114.663 91.0122Z" fill="white"/>
<path d="M259.919 387.679C259.355 387.141 258.831 386.262 258.185 385.098C258.695 385.655 259.327 386.496 259.919 387.679Z" fill="white"/>
<path d="M349.259 236.328C349.455 236.598 349.569 237.198 349.508 237.901C349.281 237.554 349.229 237.106 349.259 236.328Z" fill="white"/>
<path d="M273.196 100.856C272.952 100.377 273.001 99.7906 273.216 99.09C273.417 99.5667 273.454 100.157 273.196 100.856Z" fill="white"/>
<path d="M73.714 217.727C73.3627 217.458 73.0969 216.9 72.9384 216.159C73.2971 216.464 73.5482 216.951 73.714 217.727Z" fill="white"/>
<path d="M275.275 90.8559C275.08 90.4156 275.13 89.8096 275.358 89.0932C275.53 89.552 275.525 90.1211 275.275 90.8559Z" fill="white"/>
<path d="M278.218 88.1227C278.637 88.0815 279.234 88.281 279.925 88.6812C279.478 88.7091 278.937 88.5362 278.218 88.1227Z" fill="white"/>
<path d="M362.38 280.913C362.178 280.43 362.258 279.821 362.528 279.109C362.699 279.599 362.681 280.193 362.38 280.913Z" fill="white"/>
<path d="M288.689 329.175C288.496 329.439 288.033 329.65 287.321 329.913C287.521 329.685 287.97 329.404 288.689 329.175Z" fill="white"/>
<path d="M285.687 100.078C285.806 100.44 285.669 100.958 285.405 101.715C285.329 101.38 285.38 100.807 285.687 100.078Z" fill="white"/>
<path d="M91.9006 131.722C91.5628 131.631 91.1112 131.268 90.5123 130.646C90.8389 130.741 91.3129 131.095 91.9006 131.722Z" fill="white"/>
<path d="M50.163 210.349C50.4568 210.553 50.6552 211.052 50.9062 211.817C50.6618 211.604 50.3647 211.125 50.163 210.349Z" fill="white"/>
<path d="M260.772 389.757C260.508 389.803 260.328 389.567 260.114 389.089C260.299 389.087 260.558 389.297 260.772 389.757Z" fill="white"/>
<path d="M286.015 93.2741C286.213 93.1745 286.447 93.3563 286.828 93.7112C286.682 93.7549 286.375 93.6452 286.015 93.2741Z" fill="white"/>
<path d="M187.731 374.137C187.789 374.319 187.61 374.498 187.262 374.772C187.077 374.548 187.21 374.304 187.731 374.137Z" fill="white"/>
<path d="M290.724 328.258C290.762 328.465 290.558 328.63 290.173 328.883C290.04 328.652 290.202 328.4 290.724 328.258Z" fill="white"/>
<path d="M373.862 230.742C373.682 230.752 373.648 230.514 373.748 230.151C373.794 230.036 373.919 230.506 373.862 230.742Z" fill="white"/>
<path d="M128.111 355.216C128.285 355.146 128.511 355.332 128.85 355.718C128.638 355.889 128.371 355.74 128.111 355.216Z" fill="white"/>
<path d="M107.743 303.763C107.515 303.859 107.349 303.705 107.114 303.384C107.367 303.1 107.621 303.2 107.743 303.763Z" fill="white"/>
<path d="M272.213 119.946C272.104 119.807 272.22 119.58 272.494 119.226C272.773 119.399 272.702 119.652 272.213 119.946Z" fill="white"/>
<path d="M205.753 351.113C205.996 351.197 205.62 351.306 205.62 351.306C205.62 351.306 205.233 351.256 205.118 351.19C205.172 351.093 205.341 351.061 205.753 351.113Z" fill="white"/>
<path d="M75.2675 280.931C75.2313 280.757 75.4619 280.531 75.915 280.192C75.9126 280.321 75.7114 280.588 75.2675 280.931Z" fill="white"/>
<path d="M169.777 348.134C169.863 348.338 169.673 348.562 169.28 348.896C169.248 348.748 169.389 348.464 169.777 348.134Z" fill="white"/>
<path d="M191.734 347.231C191.972 347.267 191.629 347.431 191.629 347.431C191.629 347.431 191.252 347.418 191.139 347.357C191.026 347.296 191.496 347.195 191.734 347.231Z" fill="white"/>
<path d="M79.4015 245.693C79.1942 245.696 79.1087 245.537 79.0105 245.234C79.238 245.144 79.4132 245.291 79.4015 245.693Z" fill="white"/>
<path d="M308.899 120.047C305.62 116.286 302.34 112.524 299.061 108.763C305.729 108.703 308.462 113.09 311.22 117.921C311.049 118.623 310.721 119.039 309.893 119.752C309.392 120.049 308.899 120.047 308.899 120.047Z" fill="white"/>
<path d="M302.052 98.631C300.693 97.5449 299.373 96.1283 297.962 94.3891C298.68 93.4762 299.488 92.886 300.543 92.123C301.525 93.0551 302.26 94.16 303.078 95.5934C302.805 96.7148 302.448 97.5077 302.052 98.631Z" fill="white"/>
<path d="M332.683 135.061C332.725 136.684 332.409 138.432 332.049 140.595C332.112 139.069 332.219 137.128 332.683 135.061Z" fill="white"/>
<path d="M313.862 112.818C313.526 112.818 313.048 112.649 312.587 112.222C312.977 112.192 313.348 112.421 313.862 112.818Z" fill="white"/>
<path d="M308.976 120.362C308.899 120.047 309.392 120.049 309.638 120.056C309.76 120.559 309.637 121.054 309.363 121.754C309.159 121.532 309.106 121.105 308.976 120.362Z" fill="white"/>
<path d="M309.893 108.588C309.732 108.706 309.484 108.57 309.164 108.167C309.312 108.083 309.551 108.228 309.893 108.588Z" fill="white"/>
<path d="M306.155 98.173C306.298 98.1526 306.588 98.3207 306.952 98.7382C306.758 98.81 306.517 98.6014 306.155 98.173Z" fill="white"/>
<path d="M307.102 99.1631C307.337 99.0503 307.579 99.2346 307.74 99.7582C307.52 99.8104 307.338 99.5979 307.102 99.1631Z" fill="white"/>
<path d="M302.909 100.451C302.973 100.564 302.627 100.622 302.627 100.622C302.627 100.622 302.378 100.374 302.407 100.201C302.6 100.095 302.736 100.198 302.909 100.451Z" fill="white"/>
<path d="M308.884 107.798C308.717 107.821 308.43 107.668 308.164 107.257C308.395 107.192 308.589 107.399 308.884 107.798Z" fill="white"/>
<path d="M314.494 116.864C314.271 116.668 314.369 116.427 314.836 116.187C314.952 116.359 314.822 116.569 314.494 116.864Z" fill="white"/>
<path d="M308.19 122.9C308.12 122.716 308.308 122.487 308.778 122.25C308.829 122.431 308.626 122.635 308.19 122.9Z" fill="white"/>
<path d="M295.73 94.0755C294.269 96.8978 292.444 99.7593 290.293 102.765C290.068 98.9347 290.868 95.3892 295.73 94.0755Z" fill="white"/>
<path d="M303.892 90.0747C303.975 90.3414 303.765 90.5647 303.238 90.6409C303.198 90.3661 303.424 90.2119 303.892 90.0747Z" fill="white"/>
<path d="M301.479 91.0663C301.657 91.264 301.549 91.4786 301.116 91.6626C301.016 91.4838 301.15 91.3009 301.479 91.0663Z" fill="white"/>
<path d="M283.086 363.661C281.922 363.995 280.861 363.996 279.403 363.995C279.007 362.28 279.009 360.568 279.22 358.316C279.831 357.535 280.233 357.294 280.767 357.416C280.94 358.384 280.982 358.991 281.025 359.598C281.418 359.628 281.81 359.658 282.203 359.688C282.542 356.789 282.88 353.891 283.218 350.993C288.996 355.118 285.432 359.221 283.086 363.661Z" fill="white"/>
<path d="M322.236 297.075C322.83 295.789 323.661 294.587 324.74 293.193C324.15 294.387 323.312 295.773 322.236 297.075Z" fill="white"/>
<path d="M282.931 348.729C282.375 348.232 281.777 347.415 281.123 346.288C281.675 346.79 282.283 347.6 282.931 348.729Z" fill="white"/>
<path d="M336.191 290.102C336.543 289.921 337.082 289.85 337.808 289.885C337.456 290.065 336.917 290.138 336.191 290.102Z" fill="white"/>
<path d="M275.195 337.113C275.446 337.004 275.883 337 276.648 336.994C276.444 337.067 275.913 337.143 275.195 337.113Z" fill="white"/>
<path d="M352.222 291.877C350.536 290.253 349.095 288.491 347.551 286.383C349.968 287.192 354.097 286.928 352.222 291.877Z" fill="white"/>
<path d="M111.445 316.057C111.035 317.199 110.302 318.424 109.271 319.798C109.69 318.678 110.406 317.41 111.445 316.057Z" fill="white"/>
<path d="M106.999 321.659C106.166 322.615 105.333 323.572 104.221 324.698C104.763 323.347 105.583 321.826 106.701 320.435C107 320.929 106.999 321.294 106.999 321.659Z" fill="white"/>
<path d="M107.272 321.608C106.999 321.294 107 320.929 107 320.291C107.435 320.006 107.869 319.994 108.629 319.98C108.485 320.505 108.014 321.031 107.272 321.608Z" fill="white"/>
<path d="M132.18 334.848C132.666 333.973 133.473 333 134.609 331.936C134.127 332.814 133.314 333.782 132.18 334.848Z" fill="white"/>
<path d="M128.381 338.913C128.575 338.449 129.029 337.856 129.726 337.115C129.527 337.573 129.084 338.179 128.381 338.913Z" fill="white"/>
<path d="M130.148 336.813C130.126 336.673 130.287 336.367 130.704 335.974C130.777 336.163 130.568 336.417 130.148 336.813Z" fill="white"/>
<path d="M280.349 355.006C280.439 355.457 280.53 355.908 280.628 356.706C280.233 357.294 279.831 357.535 279.222 357.888C278.659 355.925 278.303 353.852 278.184 351.421C278.422 351.063 278.818 351.055 278.818 351.055C278.818 351.055 278.938 351.044 278.959 351.413C279.436 352.857 279.893 353.931 280.349 355.006Z" fill="white"/>
<path d="M274.99 345.503C275.596 345.919 276.269 346.637 276.971 347.664C276.352 347.249 275.704 346.527 274.99 345.503Z" fill="white"/>
<path d="M278.764 350.749C278.818 351.055 278.422 351.063 278.225 351.068C277.715 350.268 277.401 349.462 277.056 348.332C277.586 348.819 278.148 349.631 278.764 350.749Z" fill="white"/>
<path d="M87.0102 121.02C87.0236 121.036 86.9115 121.029 86.9388 121.003C86.9661 120.978 86.9969 121.005 87.0102 121.02Z" fill="white"/>
<path d="M280.466 354.705C279.893 353.931 279.436 352.857 278.964 351.473C279.493 352.245 280.038 353.325 280.466 354.705Z" fill="white"/>
</svg>
